<svg xmlns="http://www.w3.org/2000/svg" width="116" height="46" viewBox="0 0 116 46">
  <g id="img_sitelogo" transform="translate(-99 -54.727)">
    <g id="レイヤー_2" data-name="レイヤー 2" transform="translate(53 -192.255)">
      <g id="Layer_1" data-name="Layer 1" transform="translate(46 246.982)">
        <path id="パス_1599" data-name="パス 1599" d="M25.454,0h6V6.421h-5.9c-2.932,0-4.046.409-4.993,1.268a3.58,3.58,0,0,0-.4,4.86c.834,1.147,3.6,2.757,7.41,4.963,2.406,1.392,6.988,4.61,7.044,10,.065,6.687-7.289,10.948-7.289,10.948l-1.346-1.433a6.437,6.437,0,0,0,2.318-4.6c.139-2.846-1.54-5.952-4.759-7.966-3.317-2.074-8.258-5.1-8.258-5.1A9.24,9.24,0,0,1,11.532,8.04,11.766,11.766,0,0,1,18.773.935a13.679,13.679,0,0,1,3.36-.825A23.868,23.868,0,0,1,25.454,0" transform="translate(-1.973 0.018)" fill="#00a0e9"/>
        <path id="パス_1600" data-name="パス 1600" d="M6.394,41.159H0v6.584H10a18.594,18.594,0,0,0,3.676-.315,13.243,13.243,0,0,0,8.047-4.346s2.523-3.112,2.608-6.477-1.916-6.611-7.046-9.539a51.158,51.158,0,0,1-5.238-3.127s-4.43-2.468-5.12-6.005a6.65,6.65,0,0,1,2.2-6.863L7.869,9.719S.353,13.444.4,20.777c.034,5.692,5.811,8.974,7.1,9.752,0,0,1.244.771,3.052,1.807S15.4,35,15.312,37.327c-.082,2.122-1.278,3.358-4.149,3.656a42.167,42.167,0,0,1-4.769.176" transform="translate(0 -1.745)" fill="#004098"/>
        <path id="パス_1601" data-name="パス 1601" d="M127.95,40.8V19.175h2.865a1.474,1.474,0,0,1,1.674,1.6V40.789h5.693V20.137a6.572,6.572,0,0,0-.917-3.554,5.483,5.483,0,0,0-4.411-2.5h-10.64V40.8Z" transform="translate(-22.185 -2.535)" fill="#004098"/>
        <path id="パス_1602" data-name="パス 1602" d="M69.193,40.8V19.175h2.865a1.474,1.474,0,0,1,1.674,1.6V40.789h5.693V20.137a6.593,6.593,0,0,0-.914-3.554,5.494,5.494,0,0,0-4.412-2.5H63.463V40.8Z" transform="translate(-11.52 -2.535)" fill="#004098"/>
        <path id="パス_1603" data-name="パス 1603" d="M90.263,39.411h6.518V34.393H93.118c-1.68,0-1.594-1.368-1.594-1.368V17.761h5.257V12.824H91.528V6.317L85.8,15V34.265a5.234,5.234,0,0,0,1.137,3.521,4.746,4.746,0,0,0,3.328,1.623" transform="translate(-15.573 -1.129)" fill="#004098"/>
        <path id="パス_1604" data-name="パス 1604" d="M115.294,15.841a4.3,4.3,0,0,0-3.738-1.658h-6.122a4.274,4.274,0,0,0-3.74,1.658,5.427,5.427,0,0,0-.809,3.229V36.233a4.564,4.564,0,0,0,1.51,3.39,4.674,4.674,0,0,0,3.037,1.186h10.088V35.817h-7.349a1.969,1.969,0,0,1-1.337-.409,1.638,1.638,0,0,1-.385-1.207V32.039h5.106a5.131,5.131,0,0,0,3.3-1.183,5.014,5.014,0,0,0,1.26-2.977V19.07H116.1a5.466,5.466,0,0,0-.809-3.229m-4.785,9.643c0,1.648-1.725,1.518-1.725,1.518h-2.338v-6.29c0-1.65,1.725-1.52,1.725-1.52h.613s1.725-.13,1.725,1.52v4.771" transform="translate(-18.311 -2.553)" fill="#004098"/>
        <path id="パス_1605" data-name="パス 1605" d="M55.928,15.563A4.883,4.883,0,0,0,52.639,14.1h-10.1l-.018,4.961h7.265c1.064,0,1.85.188,1.85,1.833v1.822H46.45a5.072,5.072,0,0,0-2.827.819,4.61,4.61,0,0,0-1.555,2.648,8.876,8.876,0,0,0-.173,1.794v8.242a4.068,4.068,0,0,0,4.543,4.566h6.15a4.538,4.538,0,0,0,3.136-.875A4.442,4.442,0,0,0,57.2,36.218l.007-.007V18.751a4.96,4.96,0,0,0-.622-2.353,3.909,3.909,0,0,0-.655-.835M51.6,34.435c0,.612-.264,1.228-1.386,1.228H48.786a1.179,1.179,0,0,1-1.321-1.224V29.2a1.368,1.368,0,0,1,1.445-1.315h2.7s-.015,5.944-.015,6.552" transform="translate(-7.605 -2.538)" fill="#004098"/>
      </g>
    </g>
  </g>
</svg>
